# xmcd
#
# Track frame offsets:
#	182
#	20232
#	35127
#	54535
#	72695
#	88652
#	112540
#	127695
#	147095
#	164942
#	179662
#	200865
#	221370
#	235122
#	252480
#	270777
#	285995
#	309857
#	330110
#
# Disc length: 4679 seconds
#
# Revision: 2
# Processed by: cddbd v1.5.2PL0 Copyright (c) Steve Scherf et al.
# Submitted via: audiograbber 1.83.01
#
DISCID=13124513
DTITLE=Rita MacNeil - Working Man - The Best Of Rita MacNeil
DYEAR=1993
DGENRE=Easy Listening
TTITLE0=Working Man
TTITLE1=Shining Strong
TTITLE2=Moment In Time
TTITLE3=I'll Accept The Rose
TTITLE4=Lupins
TTITLE5=Flying On Your Own
TTITLE6=Broken Heartstrings
TTITLE7=Home I'll Be
TTITLE8=Leave Her Memory
TTITLE9=Bring It To Me
TTITLE10=The Crossing
TTITLE11=Reason To Believe
TTITLE12=Thinking Of You
TTITLE13=I Need To Feel Close Again
TTITLE14=Old Man
TTITLE15=Reach The Sky Tonight
TTITLE16=Good Friends
TTITLE17=She's Called Nova Scotia
TTITLE18=Bring It On Home To Me
EXTD=
EXTT0=
EXTT1=
EXTT2=
EXTT3=
EXTT4=
EXTT5=
EXTT6=
EXTT7=
EXTT8=
EXTT9=
EXTT10=
EXTT11=
EXTT12=
EXTT13=
EXTT14=
EXTT15=
EXTT16=
EXTT17=
EXTT18=
PLAYORDER=
